<svg width="24" height="24" viewBox="0 0 24 24" fill="none" xmlns="http://www.w3.org/2000/svg">
<path fill-rule="evenodd" clip-rule="evenodd" d="M16.2963 16.9958C14.7386 18.3718 12.7065 19.0875 10.6303 18.9915C8.55415 18.8954 6.59685 17.9951 5.17283 16.4812C3.7488 14.9673 2.96985 12.9587 3.00089 10.8805C3.03194 8.80234 3.87054 6.81783 5.33915 5.34715C6.80776 3.87646 8.79108 3.03505 10.8692 3.00107C12.9473 2.96709 14.9571 3.7432 16.473 5.16508C17.9889 6.58697 18.8919 8.543 18.9909 10.619C19.0899 12.6951 18.377 14.7281 17.0033 16.2878L20.9123 20.1978L20.2053 20.9048L16.2963 16.9958ZM18.0003 10.9998C18.0003 9.14328 17.2628 7.3628 15.95 6.05004C14.6373 4.73729 12.8568 3.99979 11.0003 3.99979C9.14376 3.99979 7.36328 4.73729 6.05052 6.05004C4.73777 7.3628 4.00027 9.14328 4.00027 10.9998C4.00027 11.919 4.18133 12.8293 4.53312 13.6786C4.8849 14.5279 5.40051 15.2995 6.05052 15.9495C6.70053 16.5995 7.47221 17.1152 8.32149 17.4669C9.17077 17.8187 10.081 17.9998 11.0003 17.9998C11.9195 17.9998 12.8298 17.8187 13.6791 17.4669C14.5283 17.1152 15.3 16.5995 15.95 15.9495C16.6 15.2995 17.1156 14.5279 17.4674 13.6786C17.8192 12.8293 18.0003 11.919 18.0003 10.9998Z" fill="#0F0F0F"/>
</svg>
